<?xml version="1.0" encoding="UTF-8" standalone="no"?>
<!-- Created with Inkscape (http://www.inkscape.org/) -->

<svg
   xmlns:dc="http://purl.org/dc/elements/1.1/"
   xmlns:cc="http://creativecommons.org/ns#"
   xmlns:rdf="http://www.w3.org/1999/02/22-rdf-syntax-ns#"
   xmlns:svg="http://www.w3.org/2000/svg"
   xmlns="http://www.w3.org/2000/svg"
   xmlns:sodipodi="http://sodipodi.sourceforge.net/DTD/sodipodi-0.dtd"
   xmlns:inkscape="http://www.inkscape.org/namespaces/inkscape"
   width="96"
   height="96"
   id="svg6517"
   version="1.1"
   inkscape:version="0.91 r13725"
   sodipodi:docname="icon.svg">
  <defs
     id="defs6519">
    <linearGradient
       id="Background">
      <stop
         id="stop4178"
         offset="0"
         style="stop-color:#b8b8b8;stop-opacity:1" />
      <stop
         id="stop4180"
         offset="1"
         style="stop-color:#c9c9c9;stop-opacity:1" />
    </linearGradient>
    <filter
       style="color-interpolation-filters:sRGB;"
       inkscape:label="Inner Shadow"
       id="filter1121">
      <feFlood
         flood-opacity="0.59999999999999998"
         flood-color="rgb(0,0,0)"
         result="flood"
         id="feFlood1123" />
      <feComposite
         in="flood"
         in2="SourceGraphic"
         operator="out"
         result="composite1"
         id="feComposite1125" />
      <feGaussianBlur
         in="composite1"
         stdDeviation="1"
         result="blur"
         id="feGaussianBlur1127" />
      <feOffset
         dx="0"
         dy="2"
         result="offset"
         id="feOffset1129" />
      <feComposite
         in="offset"
         in2="SourceGraphic"
         operator="atop"
         result="composite2"
         id="feComposite1131" />
    </filter>
    <filter
       style="color-interpolation-filters:sRGB;"
       inkscape:label="Drop Shadow"
       id="filter950">
      <feFlood
         flood-opacity="0.25"
         flood-color="rgb(0,0,0)"
         result="flood"
         id="feFlood952" />
      <feComposite
         in="flood"
         in2="SourceGraphic"
         operator="in"
         result="composite1"
         id="feComposite954" />
      <feGaussianBlur
         in="composite1"
         stdDeviation="1"
         result="blur"
         id="feGaussianBlur956" />
      <feOffset
         dx="0"
         dy="1"
         result="offset"
         id="feOffset958" />
      <feComposite
         in="SourceGraphic"
         in2="offset"
         operator="over"
         result="composite2"
         id="feComposite960" />
    </filter>
    <clipPath
       clipPathUnits="userSpaceOnUse"
       id="clipPath873">
      <g
         transform="matrix(0,-0.66666667,0.66604479,0,-258.25992,677.00001)"
         id="g875"
         inkscape:label="Layer 1"
         style="fill:#ff00ff;fill-opacity:1;stroke:none;display:inline">
        <path
           style="fill:#ff00ff;fill-opacity:1;stroke:none;display:inline"
           d="m 46.702703,898.22775 50.594594,0 C 138.16216,898.22775 144,904.06497 144,944.92583 l 0,50.73846 c 0,40.86071 -5.83784,46.69791 -46.702703,46.69791 l -50.594594,0 C 5.8378378,1042.3622 0,1036.525 0,995.66429 L 0,944.92583 C 0,904.06497 5.8378378,898.22775 46.702703,898.22775 Z"
           id="path877"
           inkscape:connector-curvature="0"
           sodipodi:nodetypes="sssssssss" />
      </g>
    </clipPath>
    <filter
       inkscape:collect="always"
       id="filter891"
       inkscape:label="Badge Shadow">
      <feGaussianBlur
         inkscape:collect="always"
         stdDeviation="0.71999962"
         id="feGaussianBlur893" />
    </filter>
  </defs>
  <sodipodi:namedview
     id="base"
     pagecolor="#ffffff"
     bordercolor="#666666"
     borderopacity="1.0"
     inkscape:pageopacity="0.0"
     inkscape:pageshadow="2"
     inkscape:zoom="4.0745362"
     inkscape:cx="69.163933"
     inkscape:cy="60.12238"
     inkscape:document-units="px"
     inkscape:current-layer="layer3"
     showgrid="true"
     fit-margin-top="0"
     fit-margin-left="0"
     fit-margin-right="0"
     fit-margin-bottom="0"
     inkscape:window-width="1536"
     inkscape:window-height="801"
     inkscape:window-x="-8"
     inkscape:window-y="-8"
     inkscape:window-maximized="1"
     showborder="true"
     showguides="true"
     inkscape:guide-bbox="true"
     inkscape:showpageshadow="false">
    <inkscape:grid
       type="xygrid"
       id="grid821" />
    <sodipodi:guide
       orientation="1,0"
       position="16,48"
       id="guide823" />
    <sodipodi:guide
       orientation="0,1"
       position="64,80"
       id="guide825" />
    <sodipodi:guide
       orientation="1,0"
       position="80,40"
       id="guide827" />
    <sodipodi:guide
       orientation="0,1"
       position="64,16"
       id="guide829" />
  </sodipodi:namedview>
  <metadata
     id="metadata6522">
    <rdf:RDF>
      <cc:Work
         rdf:about="">
        <dc:format>image/svg+xml</dc:format>
        <dc:type
           rdf:resource="http://purl.org/dc/dcmitype/StillImage" />
        <dc:title></dc:title>
      </cc:Work>
    </rdf:RDF>
  </metadata>
  <g
     inkscape:label="BACKGROUND"
     inkscape:groupmode="layer"
     id="layer1"
     transform="translate(268,-635.29076)"
     style="display:inline">
    <path
       style="fill:#ffffff;fill-opacity:1;stroke:none;display:inline;filter:url(#filter1121)"
       d="m -268,700.15563 0,-33.72973 c 0,-27.24324 3.88785,-31.13513 31.10302,-31.13513 l 33.79408,0 c 27.21507,0 31.1029,3.89189 31.1029,31.13513 l 0,33.72973 c 0,27.24325 -3.88783,31.13514 -31.1029,31.13514 l -33.79408,0 C -264.11215,731.29077 -268,727.39888 -268,700.15563 Z"
       id="path6455"
       inkscape:connector-curvature="0"
       sodipodi:nodetypes="sssssssss" />
  </g>
  <g
     inkscape:groupmode="layer"
     id="layer3"
     inkscape:label="PLACE YOUR PICTOGRAM HERE"
     style="display:inline">
    <g
       id="g4347"
       transform="matrix(0.48279397,0,0,0.48279397,94.293349,31.511406)">
      <g
         transform="translate(-159.67517,-32.116499)"
         id="g21">
        <g
           id="g23">
          <path
             style="fill:#ffffff"
             inkscape:connector-curvature="0"
             id="path25"
             d="m 50.1,115.6 -0.7,0 c -1.2,0 -2.4,0.5 -3.5,1.2 -2.8,2 -3.4,5.9 -1.4,8.7 2,2.8 5.9,3.4 8.7,1.4 2.8,-2 3.4,-6 1.4,-8.8 -0.9,-1.1 -2,-2 -3.4,-2.4 l -0.4,-0.1 1.2,0.5 c 1,0.4 1.9,1.1 2.5,2 2,2.8 1.4,6.6 -1.4,8.6 -2.8,2 -6.6,1.4 -8.6,-1.4 -2,-2.8 -1.4,-6.6 1.4,-8.6 0.9,-0.7 1.9,-1 3.1,-1.1 l 1.1,0 0,0 z M 34.2,90.1 c -2,-2.8 -6,-3.4 -8.7,-1.4 -2.8,2 -3.4,6 -1.4,8.7 2,2.8 6,3.4 8.7,1.4 1,-0.7 1.8,-1.7 2.2,-2.9 l 0.2,-0.7 -0.1,0 -0.4,1 c -0.4,1 -1.1,1.9 -2,2.5 -2.8,2 -6.6,1.4 -8.6,-1.4 -2,-2.7 -1.4,-6.6 1.4,-8.6 2.8,-1.9 6.7,-1.3 8.7,1.4 0.6,1 1,2 1.1,3.1 l 0.1,1.3 0,-0.4 c 0.1,-1.5 -0.3,-2.9 -1.2,-4 z m 15.7,30 -0.7,0.1 c -0.3,0 -0.5,0.1 -0.7,0.3 -0.7,0.5 -0.9,1.6 -0.4,2.3 0.5,0.7 1.6,0.9 2.3,0.4 0.9,-0.6 1.1,-2 0,-2.7 l -0.5,-0.4 z M 30.5,92.8 C 30,92 29,91.9 28.2,92.4 c -0.7,0.5 -0.9,1.6 -0.4,2.3 0.5,0.7 1.6,0.9 2.3,0.4 0.2,-0.1 0.3,-0.3 0.5,-0.6 l 0.3,-0.6 -0.2,-0.6 c 0,-0.2 -0.1,-0.4 -0.2,-0.5 z m 16.4,5.5 -0.4,1 c -0.9,2 0.9,4.6 3.2,4.4 l 1.1,-0.1 0,-0.1 0.5,-0.4 c 1.1,-0.8 1.5,-2.3 1,-3.6 L 52,98.7 51.4,98.2 c -1.1,-0.9 -2.6,-1 -3.7,-0.2 l -0.8,0.3 z M 71.4,84.6 c -2,-2.8 -6,-3.4 -8.7,-1.4 -2.5,1.8 -3.3,5.2 -1.9,7.9 l 0.4,0.9 0.7,0.7 c 2.2,2.2 5.6,2.5 8.1,0.7 2.8,-2.1 3.4,-6 1.4,-8.8 z m -9.9,7.5 -0.1,-0.3 -0.2,-0.2 0.1,-0.1 -0.4,-1.2 c -0.9,-2.5 -0.1,-5.3 2,-6.8 2.6,-1.9 6.3,-1.3 8.2,1.3 1.9,2.6 1.3,6.3 -1.3,8.2 -2.1,1.6 -5,1.5 -7.1,-0.2 l -1,-0.8 -0.2,0.1 z m 5.9,-4.6 C 67,86.9 66.1,86.8 65.5,87.2 65.1,87.5 64.9,88.1 65,88.6 l 0.1,0.6 0.5,0.3 c 0.5,0.3 1.1,0.2 1.5,-0.1 0.6,-0.5 0.8,-1.3 0.3,-1.9 z" />
          <path
             style="fill:#0690ba"
             inkscape:connector-curvature="0"
             id="path27"
             d="m 40.9,128.1 c -3.5,-4.8 -2.4,-11.4 2.4,-14.9 1,-0.7 2.1,-1.2 3.2,-1.6 l 0.2,-4 c -2.6,-1.1 -4.7,-3.9 -4.9,-6.7 l -3.9,-1 c -0.7,1 -1.5,1.8 -2.5,2.5 -4.8,3.5 -11.5,2.4 -14.9,-2.4 -3.5,-4.8 -2.4,-11.4 2.4,-14.9 4.8,-3.5 11.4,-2.4 14.9,2.4 0.9,1.3 1.6,2.8 1.9,4.3 l 6.8,1.8 c 1.8,-0.7 3.8,-0.8 5.6,-0.1 L 56,90.7 c -1,-4.1 0.6,-8.6 4.1,-11.1 4.8,-3.5 11.5,-2.4 14.9,2.4 3.5,4.7 2.4,11.4 -2.4,14.9 -3.5,2.5 -8.2,2.7 -11.8,0.5 l -3.9,2.8 c 0.1,1.9 -0.6,3.8 -1.8,5.3 l -0.4,7 c 1.4,0.8 2.6,1.8 3.5,3.1 3.4,4.8 2.4,11.4 -2.4,14.9 -4.7,3.5 -11.4,2.4 -14.9,-2.4 z m 14.9,-10.8 c 2.5,3.5 1.7,8.3 -1.7,10.8 3.4,-2.5 4.2,-7.3 1.7,-10.8 0,0 0,0 0,0 0,0 0,0 0,0 z M 35.4,89.2 C 32.9,85.8 28,85 24.6,87.5 c 3.5,-2.5 8.3,-1.7 10.8,1.7 0,0 0,0 0,0 0,0 0,0 0,0 z m 14.8,15 -0.9,9.8 -1.1,0.2 c -1.1,0.2 -2.2,0.7 -3.1,1.3 1.2,-0.9 2.7,-1.4 4.3,-1.4 l 2.3,-0.1 0,0.3 0,0 c 0.3,0.1 0.6,0.2 0.9,0.3 l -0.9,-0.3 0.5,-9.6 -2.3,-1.2 c -1.6,0.2 -3.2,1 -4.2,-0.4 -1,-1.4 -1.2,-3 -0.6,-4.5 l 0.7,-1.5 1.1,-0.6 c 0.1,0 0.1,-0.1 0.2,-0.1 L 46.7,96.6 37,94.1 36.9,93.2 c 0,0.3 0,0.6 0,0.9 l 0,0 0.3,0.1 -0.7,2.2 C 36,97.8 35,99.1 33.8,100 34.7,99.3 35.5,98.5 36,97.5 l 0.6,-1 9.3,2.3 -1.1,1.3 c -0.3,2.2 1.6,4.7 3.7,5.1 l 1.7,-1 z m -2.1,-4.8 -0.2,0.5 c -0.5,1.1 0.5,2.4 1.7,2.3 l 0.5,-0.1 0.4,-0.3 c 0.6,-0.4 0.8,-1.2 0.5,-1.9 l -0.1,-0.4 -0.3,-0.3 c -0.5,-0.4 -1.4,-0.5 -2,-0.1 l -0.5,0.3 z m 5.7,2 c -0.1,0.6 -0.3,1.2 -0.6,1.7 0.3,-0.6 0.5,-1.2 0.6,-1.7 z m 5.4,-9.4 -6.9,5 -0.7,-0.4 c 0.2,0.1 0.5,0.3 0.7,0.5 l 0.9,0.8 0.4,1.1 c 0.1,0.3 0.2,0.5 0.2,0.8 L 53.7,99 60.7,93.9 60.5,93.4 60,92.9 59.8,92.5 59.2,92 Z m 13.4,-8.3 c 2.5,3.4 1.7,8.3 -1.7,10.8 3.4,-2.5 4.2,-7.3 1.7,-10.8 -2.5,-3.4 -7.4,-4.2 -10.8,-1.7 3.4,-2.5 8.3,-1.7 10.8,1.7 z m -25.6,40 c -1,-1.4 -0.7,-3.4 0.7,-4.4 0.4,-0.3 0.8,-0.4 1.3,-0.5 l 1.2,-0.2 1.1,0.7 c 1.8,1.2 1.8,3.8 0.1,5.1 -1.4,1 -3.4,0.7 -4.4,-0.7 z M 26.6,95.6 c -1,-1.4 -0.7,-3.4 0.7,-4.4 1.7,-1.2 4.2,-0.5 4.9,1.7 l 0.4,1.2 -0.6,1.1 c -0.2,0.4 -0.5,0.8 -0.9,1.1 -1.5,1 -3.5,0.7 -4.5,-0.7 z m 37.2,-5.5 -0.3,-1.3 c -0.2,-1.1 0.2,-2.2 1.1,-2.9 1.3,-0.9 3,-0.6 4,0.6 0.9,1.3 0.6,3 -0.6,4 -0.9,0.6 -2.1,0.7 -3.1,0.2 l -1.1,-0.6 z" />
        </g>
        <path
           style="fill:#c3e8f2"
           inkscape:connector-curvature="0"
           id="path29"
           d="m 55.8,117.3 c -1.1,-1.5 -2.6,-2.5 -4.2,-2.9 l 0.6,-10.2 c 1.6,-1.3 2.2,-3.4 1.5,-5.3 l 7.2,-5.2 c 2.6,2.7 6.9,3.1 10,0.8 3.5,-2.5 4.2,-7.3 1.7,-10.8 -2.5,-3.4 -7.3,-4.2 -10.8,-1.7 -3.1,2.3 -4.1,6.5 -2.3,9.8 L 52.2,97 C 50.7,95.7 48.5,95.6 46.7,96.7 L 36.8,94.1 C 36.9,92.4 36.4,90.6 35.4,89.2 32.9,85.8 28,85 24.6,87.5 c -3.5,2.5 -4.2,7.3 -1.7,10.8 2.5,3.5 7.3,4.2 10.8,1.7 1.3,-1 2.2,-2.2 2.7,-3.6 l 8.7,2.3 c -0.7,1.4 -0.5,3.2 0.5,4.5 1,1.4 2.6,2 4.2,1.9 l -0.5,9 c -1.5,0 -3,0.5 -4.3,1.5 -3.4,2.5 -4.2,7.3 -1.7,10.8 2.5,3.5 7.3,4.2 10.8,1.7 3.5,-2.5 4.2,-7.3 1.7,-10.8 z m 7.9,-32.6 c 2,-1.4 4.7,-1 6.1,1 1.4,2 1,4.7 -1,6.1 -1.6,1.2 -3.8,1.1 -5.3,-0.1 l 1.3,-1 c 0.9,0.5 2.2,0.5 3.1,-0.2 1.3,-0.9 1.6,-2.7 0.6,-4 -0.9,-1.3 -2.7,-1.6 -4,-0.6 -0.9,0.7 -1.3,1.8 -1.1,2.9 l -1.3,1 c -0.6,-1.8 0,-3.9 1.6,-5.1 z M 31.9,97.5 c -2.1,1.5 -5,1 -6.5,-1.1 -1.5,-2.1 -1,-5 1.1,-6.5 2.1,-1.5 5,-1 6.5,1 0.5,0.7 0.8,1.5 0.9,2.3 l -1.6,-0.4 c -0.1,-0.3 -0.2,-0.7 -0.5,-1 -1,-1.4 -3,-1.7 -4.4,-0.7 -1.4,1 -1.7,3 -0.7,4.4 1,1.4 3,1.7 4.4,0.7 0.4,-0.3 0.7,-0.7 0.9,-1.1 l 1.5,0.4 c -0.4,0.8 -0.9,1.5 -1.6,2 z m 13.9,27.1 c -1.5,-2.1 -1,-5 1,-6.5 0.7,-0.5 1.5,-0.8 2.3,-0.9 l -0.1,1.6 c -0.5,0.1 -0.9,0.2 -1.3,0.5 -1.4,1 -1.7,3 -0.7,4.4 1,1.4 3,1.7 4.4,0.7 1.4,-1 1.7,-3 0.7,-4.4 -0.2,-0.3 -0.5,-0.5 -0.8,-0.7 l 0.1,-1.7 c 0.7,0.3 1.4,0.8 1.9,1.5 1.5,2.1 1,5 -1.1,6.5 -2,1.6 -4.9,1.1 -6.4,-1 z" />
      </g>
      <g
         transform="translate(-159.67517,-32.116499)"
         id="g31">
        <g
           id="g33">
          <path
             style="fill:#ffffff"
             inkscape:connector-curvature="0"
             id="path35"
             d="m 110.4,99.3 -0.2,0.7 c -0.3,1.2 -0.3,2.5 0.1,3.7 1.1,3.3 4.6,5.1 7.9,4 3.3,-1.1 5.1,-4.6 4.1,-7.9 -1.1,-3.3 -4.6,-5.1 -7.9,-4 -1.4,0.5 -2.5,1.3 -3.3,2.5 l -0.2,0.3 0.8,-1 c 0.7,-0.8 1.7,-1.4 2.7,-1.8 3.2,-1.1 6.7,0.7 7.7,4 1,3.2 -0.7,6.7 -3.9,7.7 -3.2,1 -6.7,-0.7 -7.7,-4 -0.4,-1.1 -0.4,-2.2 -0.1,-3.3 l 0,-0.9 0,0 z m -29.2,7.2 c -3.3,1.1 -5.1,4.6 -4,7.9 1.1,3.3 4.6,5.1 7.9,4 3.3,-1.1 5.1,-4.6 4,-7.9 -0.4,-1.2 -1.1,-2.2 -2.1,-3 l -0.6,-0.4 0,0 0.8,0.7 c 0.8,0.7 1.5,1.7 1.8,2.7 1,3.2 -0.7,6.7 -4,7.7 -3.2,1.1 -6.7,-0.7 -7.7,-4 -1,-3.1 0.7,-6.6 3.9,-7.7 1.1,-0.2 2.2,-0.3 3.3,0 l 1.2,0.3 -0.4,-0.1 C 84,106.1 82.6,106 81.2,106.5 Z m 33.5,-5.6 -0.1,0.7 c 0,0.3 0,0.5 0,0.7 0.3,0.9 1.2,1.4 2.1,1.1 0.9,-0.3 1.4,-1.2 1.1,-2.1 -0.3,-1 -1.5,-1.6 -2.6,-0.8 l -0.5,0.4 z m -32.1,10 c -0.9,0.3 -1.4,1.2 -1.1,2.1 0.3,0.9 1.2,1.3 2.1,1.1 0.9,-0.3 1.3,-1.2 1.1,-2.1 -0.1,-0.2 -0.2,-0.4 -0.4,-0.6 l -0.5,-0.5 -0.7,0 c -0.1,-0.1 -0.3,-0.1 -0.5,0 z M 93,97 l 0.8,0.7 c 1.6,1.5 4.6,0.5 5.1,-1.7 l 0.2,-1.1 -0.1,0 -0.2,-0.6 c -0.5,-1.3 -1.7,-2.1 -3.1,-2 l -0.8,0 -0.7,0.4 c -1.2,0.7 -1.7,2.2 -1.3,3.5 L 93,97 Z M 87.5,69.5 c -3.3,1.1 -5.1,4.6 -4,7.9 0.9,2.9 3.9,4.7 6.9,4.2 l 0.9,-0.1 0.9,-0.4 c 2.7,-1.4 4.1,-4.6 3.1,-7.5 -1,-3.4 -4.5,-5.2 -7.8,-4.1 z m 4.1,11.7 -0.3,0 -0.3,0.2 0,-0.1 -1.3,0.1 c -2.6,0.1 -5,-1.6 -5.8,-4 -1,-3.1 0.7,-6.4 3.8,-7.4 3.1,-1 6.4,0.7 7.4,3.8 0.8,2.5 -0.2,5.2 -2.3,6.7 l -1.2,0.5 0,0.2 z M 89,74.1 c -0.7,0.2 -1.1,1 -0.9,1.7 0.2,0.5 0.6,0.9 1.2,0.9 l 0.6,0.1 0.4,-0.4 c 0.4,-0.4 0.6,-0.9 0.4,-1.5 -0.2,-0.6 -1,-1 -1.7,-0.8 z" />
          <path
             style="fill:#0690ba"
             inkscape:connector-curvature="0"
             id="path37"
             d="m 119.5,111.9 c -5.6,1.8 -11.6,-1.3 -13.4,-6.9 -0.4,-1.2 -0.5,-2.3 -0.5,-3.5 l -3.8,-1.4 c -1.8,2.2 -5.2,3.2 -7.9,2.5 l -2.2,3.4 c 0.7,0.9 1.3,2 1.6,3.2 1.8,5.6 -1.3,11.6 -6.9,13.5 -5.6,1.8 -11.6,-1.3 -13.4,-6.9 -1.8,-5.6 1.3,-11.6 6.9,-13.4 1.5,-0.5 3.1,-0.6 4.7,-0.4 l 3.8,-5.9 c -0.1,-1.9 0.4,-3.8 1.7,-5.3 l -1.5,-4.6 c -4.2,-0.3 -7.9,-3.3 -9.3,-7.3 -1.8,-5.6 1.3,-11.6 6.9,-13.4 5.6,-1.8 11.6,1.3 13.4,6.9 1.3,4.1 0,8.6 -3.2,11.4 l 1.5,4.6 c 1.9,0.5 3.5,1.7 4.5,3.4 l 4.8,2.3 c 1.2,-1.1 4.3,-1.7 5.8,-2.2 5.6,-1.8 11.6,1.3 13.5,6.9 1.7,5.3 -1.4,11.3 -7,13.1 z m -5.7,-17.5 c 4.1,-1.3 8.4,0.9 9.7,5 -1.3,-4.1 -5.6,-6.3 -9.7,-5 0,0 0,0 0,0 0,0 0,0 0,0 z m -33,10.7 c -4.1,1.3 -6.3,5.7 -5,9.7 -1.3,-4 0.9,-8.4 5,-9.7 0,0 0,0 0,0 0,0 0,0 0,0 z m 18.8,-9.4 9.1,3.9 -0.1,1.1 c -0.2,1.1 -0.1,2.3 0.3,3.4 -0.5,-1.5 -0.5,-3 0,-4.5 l 0.6,-2.2 0.3,0.1 0,0 c 0.2,-0.3 0.3,-0.5 0.5,-0.7 l -0.6,0.7 -8.9,-3.5 -1.8,1.8 c -0.3,1.5 0,3.3 -1.6,3.8 -1.6,0.5 -3.3,0.2 -4.4,-0.8 l -1.2,-1.1 -0.2,-1.3 c 0,-0.1 0,-0.1 -0.1,-0.2 l 0.1,0.4 -5.5,8.5 -0.9,-0.2 c 0.3,0.1 0.6,0.2 0.9,0.3 l 0,0 0.2,-0.2 1.9,1.4 c 1.2,0.9 2.1,2.2 2.6,3.7 -0.4,-1.1 -0.9,-2.1 -1.7,-2.9 l -0.8,-0.8 5,-8.2 0.9,1.4 c 2,0.9 5,0 6,-1.9 l -0.6,-2 z m -5.2,0.5 0.4,0.4 c 0.9,0.8 2.4,0.3 2.7,-0.9 l 0.1,-0.5 -0.2,-0.4 c -0.2,-0.7 -0.9,-1.1 -1.7,-1.1 l -0.4,0 L 95,94 c -0.6,0.4 -0.9,1.1 -0.7,1.8 l 0.1,0.4 z M 98,91.3 c 0.5,0.3 1,0.7 1.4,1.1 C 99,92 98.5,91.6 98,91.3 Z m -7.2,-8 2.6,8.1 -0.6,0.6 c 0.2,-0.2 0.4,-0.4 0.6,-0.5 l 1,-0.6 1.2,-0.1 c 0.3,0 0.5,0 0.8,0 l -0.8,-0.1 -2.7,-8.2 -0.5,0.1 -0.6,0.3 -0.5,0.1 -0.5,0.3 z M 87,68.1 c 4.1,-1.3 8.4,0.9 9.7,5 -1.2,-4.1 -5.6,-6.3 -9.7,-5 -4,1.3 -6.3,5.7 -5,9.7 -1.2,-4 1,-8.4 5,-9.7 z m 30.2,36.6 c -1.6,0.5 -3.4,-0.4 -4,-2 -0.1,-0.4 -0.2,-0.9 -0.1,-1.4 l 0.2,-1.2 1,-0.8 c 1.7,-1.3 4.2,-0.5 4.9,1.5 0.5,1.6 -0.4,3.4 -2,3.9 z m -33.1,10.7 c -1.6,0.5 -3.4,-0.4 -4,-2 -0.6,-2 0.8,-4.2 3.1,-4.1 l 1.3,0 0.9,0.9 c 0.3,0.4 0.6,0.8 0.8,1.2 0.5,1.7 -0.4,3.5 -2.1,4 z m 6.3,-37 -1.3,-0.1 c -1.1,-0.1 -2.1,-0.9 -2.4,-2 -0.5,-1.5 0.3,-3.1 1.8,-3.6 1.5,-0.5 3.1,0.3 3.6,1.8 0.3,1.1 0,2.2 -0.8,3 l -0.9,0.9 z" />
        </g>
        <path
           style="fill:#c3e8f2"
           inkscape:connector-curvature="0"
           id="path39"
           d="m 113.8,94.4 c -1.7,0.6 -3.2,1.7 -4.1,3.1 l -9.6,-3.7 c -0.7,-1.9 -2.6,-3.1 -4.6,-3 l -2.7,-8.4 c 3.4,-1.7 5.1,-5.6 3.9,-9.3 -1.3,-4.1 -5.7,-6.3 -9.7,-5 -4,1.3 -6.3,5.7 -5,9.7 1.2,3.7 4.9,5.9 8.6,5.2 l 2.7,8.5 c -1.7,1.1 -2.5,3.1 -1.9,5.1 l -5.6,8.6 c -1.6,-0.6 -3.4,-0.7 -5.1,-0.2 -4.1,1.3 -6.3,5.7 -5,9.7 1.3,4.1 5.7,6.3 9.7,5 4.1,-1.3 6.3,-5.7 5,-9.7 -0.5,-1.5 -1.4,-2.8 -2.6,-3.7 l 4.9,-7.6 c 1.2,1.1 2.9,1.5 4.5,1 1.6,-0.5 2.7,-1.8 3.1,-3.4 l 8.4,3.3 c -0.4,1.4 -0.4,3 0.1,4.5 1.3,4.1 5.7,6.3 9.7,5 4.1,-1.3 6.3,-5.7 5,-9.7 -1.3,-4.1 -5.6,-6.3 -9.7,-5 z M 85.3,76.8 c -0.7,-2.3 0.5,-4.8 2.8,-5.5 2.3,-0.8 4.8,0.5 5.5,2.8 0.6,1.9 -0.2,4 -1.8,5 l -0.5,-1.5 c 0.8,-0.7 1.2,-1.9 0.8,-3 -0.5,-1.5 -2.1,-2.3 -3.6,-1.8 -1.5,0.5 -2.3,2.1 -1.8,3.6 0.4,1.1 1.3,1.8 2.4,2 l 0.5,1.6 c -1.9,-0.1 -3.7,-1.3 -4.3,-3.2 z m 2.3,34.2 c 0.8,2.5 -0.6,5.1 -3,5.9 -2.5,0.8 -5.1,-0.6 -5.9,-3 -0.8,-2.4 0.6,-5.1 3,-5.9 0.8,-0.3 1.7,-0.3 2.5,-0.1 l -0.9,1.4 c -0.3,0 -0.7,0 -1.1,0.1 -1.6,0.5 -2.5,2.3 -2,4 0.5,1.6 2.3,2.5 4,2 1.6,-0.5 2.5,-2.3 2,-3.9 -0.2,-0.5 -0.4,-0.9 -0.8,-1.2 l 0.9,-1.3 c 0.5,0.5 1,1.2 1.3,2 z m 30,-4.8 c -2.5,0.8 -5.1,-0.6 -5.9,-3 -0.3,-0.8 -0.3,-1.7 -0.1,-2.5 l 1.5,0.6 c -0.1,0.5 -0.1,1 0.1,1.4 0.5,1.7 2.3,2.5 4,2 1.7,-0.5 2.6,-2.3 2,-4 -0.5,-1.6 -2.3,-2.5 -4,-2 -0.3,0.1 -0.7,0.3 -0.9,0.5 l -1.6,-0.6 c 0.5,-0.6 1.2,-1.1 2.1,-1.4 2.5,-0.8 5.1,0.6 5.9,3 0.7,2.6 -0.6,5.2 -3.1,6 z" />
      </g>
      <g
         transform="translate(-159.67517,-32.116499)"
         id="g41">
        <g
           id="g43">
          <path
             style="fill:#ffffff"
             inkscape:connector-curvature="0"
             id="path45"
             d="m 112.9,37.8 0.6,0.4 c 1,0.7 2.2,1.1 3.5,1.1 3.5,0 6.3,-2.8 6.3,-6.2 0,-3.5 -2.8,-6.3 -6.2,-6.3 -3.5,0 -6.3,2.8 -6.3,6.3 0,1.4 0.5,2.8 1.4,3.9 l 0.3,0.3 -0.6,-1.1 c -0.6,-0.9 -0.9,-2 -0.9,-3.1 0,-3.4 2.8,-6.2 6.2,-6.1 3.4,0 6.1,2.8 6.1,6.1 0,3.4 -2.8,6.1 -6.2,6.1 -1.1,0 -2.2,-0.3 -3.1,-0.9 l -1.1,-0.5 0,0 z m -2.2,29.9 c 0,3.4 2.8,6.3 6.3,6.3 3.4,0 6.3,-2.8 6.3,-6.3 0,-3.5 -2.8,-6.3 -6.3,-6.3 -1.2,0 -2.5,0.4 -3.5,1.1 l -0.6,0.4 0,0 0.9,-0.5 c 1,-0.6 2,-0.9 3.1,-0.9 3.4,0 6.1,2.8 6.1,6.2 0,3.4 -2.7,6.2 -6.1,6.2 -3.4,0 -6.1,-2.8 -6.1,-6.2 0,-1.1 0.3,-2.2 0.9,-3.1 l 0.7,-1.1 -0.3,0.3 c -1,1.1 -1.4,2.5 -1.4,3.9 z m 4.9,-33.5 0.6,0.3 c 0.2,0.1 0.5,0.2 0.7,0.2 0.9,0 1.7,-0.7 1.7,-1.7 0,-0.9 -0.7,-1.7 -1.7,-1.7 -1.1,0 -2,1 -1.6,2.2 l 0.3,0.7 z m -0.3,33.6 c 0,0.9 0.7,1.7 1.7,1.7 0.9,0 1.7,-0.8 1.7,-1.7 0,-0.9 -0.8,-1.6 -1.7,-1.7 -0.2,0 -0.5,0.1 -0.7,0.2 l -0.6,0.3 -0.2,0.6 c -0.2,0.2 -0.2,0.4 -0.2,0.6 z m -10.1,-14.2 0.9,-0.5 c 1.9,-1.1 1.9,-4.3 0,-5.4 l -0.9,-0.6 -0.1,0.1 -0.7,0 c -1.4,0.1 -2.5,1 -2.9,2.3 l -0.2,0.8 0.2,0.8 c 0.3,1.3 1.5,2.3 2.9,2.3 l 0.8,0.2 z M 77.4,50.3 c 0,3.5 2.8,6.3 6.3,6.3 3.1,0 5.7,-2.3 6.2,-5.3 l 0.2,-0.9 -0.1,-1 c -0.5,-3 -3.1,-5.3 -6.2,-5.3 -3.6,0 -6.4,2.8 -6.4,6.2 z m 12.4,-0.3 -0.1,0.3 0.1,0.3 -0.1,0 -0.4,1.2 c -0.7,2.5 -3,4.3 -5.7,4.3 -3.2,0 -5.9,-2.6 -5.9,-5.9 0,-3.3 2.6,-5.9 5.9,-5.8 2.6,0 4.9,1.8 5.6,4.3 l 0.3,1.2 0.3,0.1 z m -7.5,0.4 c 0,0.8 0.6,1.4 1.4,1.4 0.5,0 1,-0.3 1.3,-0.8 L 85.3,50.4 85,49.9 c -0.2,-0.5 -0.7,-0.8 -1.3,-0.8 -0.8,-0.1 -1.4,0.5 -1.4,1.3 z" />
          <path
             style="fill:#0690ba"
             inkscape:connector-curvature="0"
             id="path47"
             d="m 127.6,33 c 0,5.9 -4.8,10.7 -10.7,10.7 -1.2,0 -2.4,-0.2 -5.3,-0.8 l -2.5,3.1 c 3.2,2.6 3.2,6.1 1.7,8.5 l 2.5,3.1 c 1.1,-0.4 2.3,-0.6 3.5,-0.6 5.9,0 10.7,4.8 10.7,10.7 0,5.9 -4.8,10.7 -10.7,10.7 -5.9,0 -10.7,-4.8 -10.7,-10.7 0,-1.6 0.4,-3.2 1,-4.6 l -4.4,-5.4 c -1.9,-0.5 -3.5,-1.6 -4.6,-3.2 l -4.8,0 C 91.9,58.4 88,61 83.7,61 77.8,61 73,56.2 73,50.3 c 0,-5.9 4.8,-10.7 10.7,-10.6 4.3,0 8.2,2.7 9.8,6.6 l 4.8,0 c 1.1,-1.6 2.7,-2.8 4.6,-3.2 l 4.4,-5.4 c -0.7,-1.4 -1,-3 -1,-4.6 0,-5.9 4.8,-10.7 10.7,-10.7 5.9,0 10.6,4.8 10.6,10.6 z m -18.4,0 c 0,-4.3 3.5,-7.7 7.7,-7.7 -4.2,0 -7.7,3.5 -7.7,7.7 0,0 0,0 0,0 0,0 0,0 0,0 z m 0,34.7 c 0,4.3 3.5,7.7 7.7,7.7 -4.3,0.1 -7.7,-3.4 -7.7,-7.7 0,0 0,0 0,0 0,0 0,0 0,0 z m -3.1,-20.8 6.5,-7.4 1,0.5 c 1,0.5 2.1,0.7 3.3,0.8 -1.5,0 -3,-0.5 -4.3,-1.3 l -1.9,-1.3 0.2,-0.3 0,0 c -0.2,-0.3 -0.4,-0.5 -0.5,-0.7 l 0.5,0.8 -6,7.4 1.1,2.3 c 1.4,0.8 3.1,1.1 3.1,2.7 0,1.7 -0.8,3.2 -2.2,4 l -1.4,0.8 -1.3,-0.2 c -0.1,0 -0.1,0 -0.2,0 l 0.4,0.1 6.4,7.9 -0.5,0.8 c 0.2,-0.3 0.3,-0.5 0.5,-0.7 l 0,0 -0.2,-0.2 1.9,-1.4 c 1.3,-0.8 2.8,-1.3 4.3,-1.3 -1.1,0 -2.3,0.3 -3.3,0.7 l -1,0.5 -6.2,-7.3 1.6,-0.4 c 1.5,-1.6 1.5,-4.7 0,-6.3 l -1.8,-0.5 z m -1.1,5.2 0.5,-0.3 c 1.1,-0.6 1,-2.2 0,-2.9 l -0.4,-0.2 -0.5,0 c -0.7,0 -1.4,0.6 -1.5,1.2 l -0.1,0.4 0.1,0.4 c 0.2,0.7 0.8,1.2 1.5,1.2 l 0.4,0.2 z m -3.6,-5 c 0.4,-0.4 0.9,-0.8 1.5,-1 -0.5,0.2 -1,0.6 -1.5,1 z m -9.8,4.4 8.5,0 0.4,0.8 c -0.1,-0.3 -0.2,-0.5 -0.3,-0.8 l -0.3,-1.2 0.3,-1.2 c 0.1,-0.3 0.1,-0.5 0.3,-0.7 l -0.4,0.7 -8.6,0 -0.1,0.5 0.1,0.7 -0.1,0.5 0.2,0.7 z M 75.9,50.3 c 0,-4.3 3.5,-7.7 7.7,-7.7 -4.2,0 -7.7,3.5 -7.7,7.7 0,4.2 3.5,7.7 7.7,7.7 -4.2,0.1 -7.7,-3.4 -7.7,-7.7 z M 120.1,33 c 0,1.7 -1.4,3.1 -3.1,3.1 -0.5,0 -0.9,-0.1 -1.4,-0.4 l -1.1,-0.6 -0.4,-1.2 c -0.7,-2 0.8,-4.2 2.9,-4.2 1.7,0.2 3.1,1.6 3.1,3.3 z m 0,34.8 c 0,1.7 -1.4,3.1 -3.1,3.1 -2.1,0 -3.7,-2 -3,-4.2 l 0.4,-1.2 1.1,-0.6 c 0.4,-0.2 0.9,-0.3 1.4,-0.3 1.8,0 3.2,1.4 3.2,3.2 z M 86.8,50.3 86.3,51.5 c -0.5,1 -1.5,1.7 -2.6,1.7 -1.6,0 -2.8,-1.3 -2.8,-2.9 0,-1.6 1.3,-2.8 2.8,-2.8 1.1,0 2.1,0.7 2.6,1.7 l 0.5,1.1 z" />
        </g>
        <path
           style="fill:#c3e8f2"
           inkscape:connector-curvature="0"
           id="path49"
           d="m 109.2,33 c 0,1.8 0.6,3.5 1.7,4.8 l -6.5,7.9 c -2,0.1 -3.8,1.5 -4.3,3.4 l -8.9,0 c -0.6,-3.7 -3.8,-6.6 -7.6,-6.6 -4.3,0 -7.7,3.4 -7.7,7.7 0,4.2 3.4,7.7 7.7,7.7 3.9,0 7.1,-2.9 7.7,-6.6 l 8.9,0 c 0.5,1.9 2.2,3.3 4.3,3.4 l 6.5,7.9 c -1.1,1.3 -1.7,3 -1.7,4.8 0,4.3 3.5,7.7 7.7,7.7 4.3,0 7.7,-3.5 7.7,-7.7 0,-4.3 -3.4,-7.7 -7.7,-7.7 -1.6,0 -3.1,0.5 -4.3,1.3 L 107,54 c 1.4,-0.8 2.3,-2.3 2.3,-3.9 0,-1.7 -0.9,-3.2 -2.3,-4 l 5.7,-7 c 1.2,0.8 2.7,1.3 4.3,1.3 4.3,0 7.7,-3.5 7.7,-7.7 0,-4.3 -3.5,-7.7 -7.7,-7.7 -4.3,0.3 -7.8,3.8 -7.8,8 z M 83.7,54.7 c -2.4,0 -4.4,-2 -4.4,-4.4 0,-2.4 2,-4.4 4.4,-4.4 2,0 3.7,1.4 4.2,3.2 l -1.6,0 c -0.4,-1 -1.4,-1.7 -2.6,-1.7 -1.6,0 -2.8,1.3 -2.8,2.8 0,1.6 1.3,2.9 2.8,2.9 1.2,0 2.2,-0.7 2.6,-1.7 l 1.6,0 c -0.5,2 -2.2,3.3 -4.2,3.3 z m 33.2,8.4 c 2.6,0 4.7,2.1 4.7,4.7 0,2.6 -2.1,4.7 -4.7,4.7 -2.6,0 -4.7,-2.1 -4.7,-4.7 0,-0.9 0.3,-1.7 0.7,-2.4 l 1.1,1.3 c -0.1,0.3 -0.2,0.7 -0.2,1.1 0,1.7 1.4,3.1 3.1,3.1 1.7,0 3.1,-1.4 3.1,-3.1 0,-1.7 -1.4,-3.1 -3.1,-3.1 -0.5,0 -1,0.1 -1.4,0.3 l -1,-1.2 c 0.7,-0.5 1.6,-0.7 2.4,-0.7 z M 121.6,33 c 0,2.6 -2.1,4.7 -4.7,4.7 -0.9,0 -1.7,-0.2 -2.4,-0.7 l 1,-1.2 c 0.4,0.2 0.9,0.3 1.4,0.4 1.7,0 3.1,-1.4 3.1,-3.1 0,-1.7 -1.4,-3.1 -3.1,-3.1 -1.7,0 -3.1,1.4 -3.1,3.1 0,0.4 0.1,0.7 0.2,1 l -1.1,1.3 c -0.4,-0.7 -0.7,-1.5 -0.7,-2.4 0,-2.6 2.1,-4.7 4.7,-4.7 2.6,0.1 4.7,2.1 4.7,4.7 z" />
      </g>
      <g
         transform="translate(-159.67517,-32.116499)"
         id="g51">
        <g
           id="g53">
          <path
             style="fill:#ffffff"
             inkscape:connector-curvature="0"
             id="path55"
             d="m 55.1,16.1 0.6,-0.4 c 1,-0.8 1.7,-1.8 2.1,-3 1.1,-3.3 -0.7,-6.8 -4,-7.9 -3.3,-1.1 -6.8,0.7 -7.9,4 -1.1,3.3 0.7,6.8 4,7.9 1.4,0.4 2.8,0.4 4.1,-0.1 l 0.4,-0.2 -1.2,0.3 C 52.1,16.9 51,16.9 50,16.6 46.8,15.5 45,12 46.1,8.8 c 1.1,-3.2 4.5,-5 7.7,-3.9 3.2,1.1 5,4.5 3.9,7.7 -0.3,1.1 -1,2 -1.8,2.7 l -0.8,0.8 0,0 z m 27.8,11.3 c 3.3,1.1 6.8,-0.7 7.9,-4 1.1,-3.3 -0.7,-6.8 -4,-7.9 -3.3,-1.1 -6.8,0.7 -7.9,4 -0.4,1.2 -0.4,2.5 -0.1,3.7 l 0.2,0.7 0,0 -0.2,-1 c -0.3,-1.1 -0.2,-2.2 0.1,-3.2 1.1,-3.2 4.5,-5 7.7,-3.9 3.2,1 5,4.5 3.9,7.7 -1.1,3.2 -4.5,5 -7.8,3.9 -1,-0.3 -2,-0.9 -2.7,-1.8 l -0.8,-1 0.2,0.3 c 0.9,1.2 2.1,2.1 3.5,2.5 z M 52.5,12.3 53,11.8 c 0.2,-0.2 0.3,-0.4 0.4,-0.6 0.3,-0.9 -0.2,-1.8 -1.1,-2.1 -0.9,-0.3 -1.8,0.2 -2.1,1.1 -0.4,1 0.3,2.2 1.6,2.2 l 0.7,-0.1 z M 84.3,23 c 0.9,0.3 1.8,-0.2 2.1,-1.1 0.3,-0.9 -0.2,-1.8 -1.1,-2.1 -0.9,-0.3 -1.8,0.2 -2.1,1.1 -0.1,0.2 -0.1,0.5 -0.1,0.7 l 0.1,0.7 0.5,0.4 C 84,22.9 84.1,23 84.3,23 Z M 67.7,28.2 67.5,27.1 C 67,24.9 64,24 62.4,25.4 l -0.8,0.7 0.1,0.1 -0.2,0.6 c -0.4,1.3 0.2,2.7 1.3,3.5 l 0.7,0.4 0.8,0 c 1.4,0.1 2.7,-0.8 3.1,-2 l 0.3,-0.5 z M 56,53.7 c 3.3,1.1 6.8,-0.7 7.9,-4 1,-2.9 -0.4,-6.2 -3.1,-7.5 L 60,41.8 59,41.5 c -3,-0.5 -6,1.3 -7,4.3 -1.1,3.2 0.7,6.8 4,7.9 z m 3.6,-12 0.3,0.2 0.3,0 -0.1,0.1 1.1,0.7 c 2.2,1.5 3.2,4.2 2.3,6.7 -1,3.1 -4.3,4.7 -7.4,3.8 -3.1,-1 -4.8,-4.3 -3.7,-7.4 0.8,-2.5 3.2,-4.2 5.8,-4 l 1.3,0.1 0.1,-0.2 z m -2,7.3 c 0.7,0.2 1.5,-0.2 1.7,-0.9 0.2,-0.5 0,-1.1 -0.4,-1.4 l -0.4,-0.4 -0.6,0.1 c -0.5,0 -1,0.4 -1.2,0.9 -0.3,0.7 0.1,1.5 0.9,1.7 z" />
          <path
             style="fill:#0690ba"
             inkscape:connector-curvature="0"
             id="path57"
             d="m 55.1,0.5 c 5.6,1.8 8.7,7.9 6.8,13.5 -0.4,1.2 -0.9,2.2 -1.7,3.2 l 2.2,3.4 c 2.8,-0.7 6.1,0.4 7.9,2.6 l 3.8,-1.4 c 0,-1.2 0.2,-2.4 0.5,-3.5 1.8,-5.6 7.9,-8.7 13.5,-6.8 5.6,1.8 8.7,7.8 6.8,13.5 -1.8,5.6 -7.9,8.7 -13.5,6.8 -1.5,-0.5 -2.9,-1.3 -4,-2.4 l -6.5,2.5 c -1,1.6 -2.6,2.9 -4.5,3.4 l -1.5,4.6 c 3.2,2.8 4.5,7.3 3.2,11.4 C 66.3,56.9 60.2,60 54.6,58.1 49.1,56 46,50 47.8,44.4 c 1.3,-4.1 5.1,-7 9.3,-7.3 l 1.5,-4.6 C 57.4,31 56.8,29.1 57,27.1 L 53.2,21.2 C 51.6,21.4 50,21.3 48.5,20.8 42.9,19 39.8,13 41.6,7.4 43.5,1.8 49.5,-1.3 55.1,0.5 Z M 49.4,18 c -4,-1.3 -6.3,-5.7 -4.9,-9.8 -1.4,4.1 0.8,8.5 4.9,9.8 0,0 0,0 0,0 0,0 0,0 0,0 z m 33,10.8 c 4.1,1.3 8.4,-0.9 9.8,-5 -1.4,4.1 -5.7,6.3 -9.8,5 0,0 0,0 0,0 0,0 0,0 0,0 z M 61.7,25.3 56.6,16.8 57.4,16 c 0.8,-0.8 1.4,-1.8 1.8,-2.9 -0.5,1.5 -1.4,2.7 -2.6,3.7 l -1.8,1.4 -0.2,-0.3 0,0 C 54.3,18 54,18.1 53.7,18.2 l 0.9,-0.2 5.2,8 2.5,-0.4 c 1.2,-1 2,-2.7 3.6,-2.1 1.6,0.5 2.8,1.8 3.1,3.3 l 0.3,1.6 -0.6,1.1 c 0,0.1 -0.1,0.1 -0.1,0.2 l 0.2,-0.4 9.5,-3.6 0.6,0.7 c -0.2,-0.2 -0.4,-0.5 -0.5,-0.8 l 0,0 -0.3,0.1 -0.7,-2.2 C 77,22 77,20.5 77.5,19 77.2,20.1 77,21.2 77.2,22.4 l 0.1,1.1 -8.9,3.7 0.1,-1.7 c -1,-1.9 -4.1,-2.9 -6,-2 l -0.8,1.8 z m 4.5,2.7 -0.1,-0.5 c -0.2,-1.2 -1.8,-1.7 -2.7,-0.9 l -0.4,0.3 -0.1,0.4 c -0.2,0.7 0.1,1.5 0.7,1.8 l 0.4,0.2 0.4,0 c 0.7,0 1.4,-0.4 1.6,-1.1 L 66.2,28 Z m -5.8,1.8 c -0.3,-0.5 -0.4,-1.1 -0.5,-1.7 0,0.6 0.2,1.2 0.5,1.7 z m 1.1,10.7 2.6,-8.1 0.8,-0.1 c -0.3,0 -0.5,0 -0.8,0 l -1.1,0 -1,-0.7 c -0.2,-0.1 -0.4,-0.3 -0.6,-0.5 l 0.6,0.6 -2.7,8.2 0.5,0.2 0.6,0.1 0.4,0.2 0.7,0.1 z M 55.6,55 c -4.1,-1.3 -6.3,-5.7 -4.9,-9.8 -1.4,4.1 0.8,8.5 4.9,9.8 4,1.3 8.4,-0.9 9.8,-4.9 -1.4,4 -5.8,6.3 -9.8,4.9 z M 52.8,7.7 c 1.6,0.5 2.6,2.3 2,4 -0.1,0.4 -0.4,0.9 -0.8,1.2 l -0.9,0.9 -1.3,0 c -2.2,0.1 -3.7,-2 -3.1,-4.1 0.6,-1.6 2.4,-2.5 4.1,-2 z m 33,10.8 c 1.6,0.5 2.6,2.3 2,3.9 -0.6,2 -3.1,2.9 -4.9,1.5 l -1,-0.8 -0.2,-1.3 c -0.1,-0.5 0,-1 0.1,-1.4 0.6,-1.6 2.3,-2.5 4,-1.9 z m -26.9,26.2 1,0.9 c 0.8,0.8 1.1,1.9 0.8,3 -0.5,1.5 -2.1,2.3 -3.6,1.8 -1.5,-0.5 -2.3,-2.1 -1.8,-3.6 0.4,-1.1 1.3,-1.8 2.4,-1.9 l 1.2,-0.2 z" />
        </g>
        <path
           style="fill:#c3e8f2"
           inkscape:connector-curvature="0"
           id="path59"
           d="m 49.4,18 c 1.7,0.6 3.5,0.5 5.1,-0.1 l 5.5,8.6 c -0.6,2 0.3,4 1.9,5.1 L 59.1,40 c -3.7,-0.6 -7.4,1.5 -8.6,5.2 -1.3,4.1 0.9,8.4 4.9,9.8 4,1.3 8.4,-0.9 9.8,-4.9 1.2,-3.7 -0.5,-7.6 -3.9,-9.3 l 2.8,-8.4 c 2,0.1 3.9,-1.1 4.6,-3 l 9.6,-3.7 c 0.9,1.4 2.3,2.6 4.1,3.1 4.1,1.3 8.4,-0.9 9.8,-5 1.3,-4.1 -0.9,-8.4 -5,-9.8 -4.1,-1.3 -8.4,0.9 -9.8,4.9 -0.5,1.5 -0.5,3.1 -0.1,4.5 l -8.4,3.3 c -0.3,-1.5 -1.4,-2.9 -3,-3.4 -1.6,-0.5 -3.3,-0.1 -4.5,0.9 l -4.9,-7.6 c 1.2,-0.9 2.1,-2.2 2.6,-3.7 1.3,-4.1 -0.9,-8.4 -5,-9.7 -4.1,-1.3 -8.4,0.9 -9.7,5 -1.3,4.1 0.9,8.5 5,9.8 z m 12.7,31.1 c -0.8,2.3 -3.2,3.6 -5.5,2.8 -2.3,-0.8 -3.6,-3.2 -2.8,-5.5 0.6,-1.9 2.5,-3.1 4.4,-3 l -0.5,1.5 c -1.1,0.1 -2,0.9 -2.4,1.9 -0.5,1.5 0.3,3.1 1.8,3.6 1.5,0.5 3.1,-0.3 3.6,-1.8 0.4,-1.1 0,-2.3 -0.8,-3 L 60.4,44 c 1.6,1.1 2.4,3.1 1.7,5.1 z M 80.3,20 c 0.8,-2.5 3.4,-3.8 5.9,-3 2.4,0.8 3.8,3.5 3,5.9 -0.8,2.4 -3.4,3.8 -5.9,3 -0.8,-0.3 -1.5,-0.8 -2,-1.4 l 1.6,-0.6 c 0.3,0.2 0.6,0.4 1,0.5 1.6,0.5 3.4,-0.4 3.9,-2 0.5,-1.6 -0.4,-3.4 -2,-3.9 -1.6,-0.5 -3.4,0.4 -4,2 -0.1,0.5 -0.2,1 -0.1,1.4 l -1.5,0.6 C 80.1,21.7 80.1,20.8 80.3,20 Z M 53.2,6.2 c 2.5,0.8 3.8,3.4 3,5.9 -0.3,0.8 -0.7,1.5 -1.4,2.1 L 54,12.9 c 0.3,-0.3 0.6,-0.7 0.8,-1.2 0.5,-1.7 -0.4,-3.4 -2,-4 -1.6,-0.5 -3.4,0.4 -4,2 -0.5,1.6 0.4,3.4 2,3.9 0.3,0.1 0.7,0.2 1,0.1 l 0.9,1.4 c -0.8,0.2 -1.6,0.2 -2.5,-0.1 -2.5,-0.8 -3.8,-3.4 -3,-5.9 0.9,-2.3 3.6,-3.7 6,-2.9 z" />
      </g>
      <g
         transform="translate(-159.67517,-32.116499)"
         id="g61">
        <g
           id="g63">
          <path
             style="fill:#ffffff"
             inkscape:connector-curvature="0"
             id="path65"
             d="M 16.8,63.9 16.5,63.2 C 16.1,62 15.3,61 14.3,60.3 c -2.8,-2 -6.7,-1.4 -8.7,1.4 -2,2.8 -1.4,6.7 1.4,8.8 2.8,2 6.7,1.4 8.8,-1.4 0.8,-1.2 1.3,-2.5 1.2,-4 l 0,-0.4 -0.2,1.3 c -0.1,1.1 -0.5,2.1 -1.1,3 -2,2.8 -5.9,3.4 -8.6,1.3 -2.8,-2 -3.3,-5.8 -1.4,-8.6 2,-2.7 5.8,-3.3 8.6,-1.4 0.9,0.6 1.6,1.5 2,2.6 l 0.5,1 0,0 z M 36.2,41 c 2,-2.8 1.4,-6.7 -1.4,-8.8 -2.8,-2 -6.7,-1.4 -8.8,1.4 -2,2.8 -1.4,6.7 1.4,8.7 1,0.7 2.2,1.2 3.5,1.2 l 0.7,0 0,-0.1 -1.1,-0.1 c -1.1,-0.1 -2.1,-0.5 -3,-1.1 -2.7,-2 -3.3,-5.8 -1.3,-8.6 2,-2.8 5.8,-3.4 8.6,-1.4 2.7,2.2 3.3,6 1.4,8.8 -0.7,0.8 -1.6,1.5 -2.6,2 l -1.2,0.5 0.4,-0.1 C 34.1,43 35.3,42.2 36.2,41 Z M 12.4,65.2 12.1,64.6 C 12,64.4 11.8,64.2 11.6,64 10.9,63.5 9.8,63.6 9.3,64.4 c -0.5,0.7 -0.4,1.8 0.4,2.3 0.9,0.7 2.2,0.4 2.6,-0.9 l 0.1,-0.6 z M 32.5,38.3 c 0.5,-0.7 0.4,-1.8 -0.4,-2.3 -0.7,-0.5 -1.8,-0.4 -2.3,0.4 -0.5,0.7 -0.3,1.8 0.4,2.3 0.2,0.1 0.4,0.2 0.7,0.3 l 0.7,0.1 0.5,-0.4 c 0.1,-0.1 0.3,-0.3 0.4,-0.4 z m -0.2,17.3 -1.1,-0.1 c -2.2,-0.2 -4,2.3 -3.2,4.4 l 0.4,1 0.1,0 0.5,0.4 c 1.1,0.8 2.6,0.7 3.7,-0.2 l 0.6,-0.5 0.3,-0.8 c 0.5,-1.3 0.1,-2.8 -1,-3.6 l -0.3,-0.6 z m 20.6,19 c 2,-2.8 1.4,-6.7 -1.4,-8.7 -2.5,-1.8 -6,-1.5 -8.1,0.7 l -0.7,0.7 -0.5,0.8 c -1.4,2.7 -0.6,6.1 1.9,7.9 2.8,2.1 6.7,1.4 8.8,-1.4 z m -10.3,-7 0.3,-0.2 0.1,-0.3 0.1,0.1 1,-0.8 c 2.1,-1.6 5,-1.7 7.1,-0.2 2.6,1.9 3.2,5.6 1.3,8.2 -1.9,2.6 -5.6,3.2 -8.2,1.3 -2.1,-1.5 -3,-4.3 -2,-6.8 l 0.5,-1.2 -0.2,-0.1 z m 6.3,4.2 c 0.4,-0.6 0.3,-1.5 -0.3,-1.9 -0.4,-0.3 -1,-0.3 -1.5,-0.1 l -0.5,0.3 -0.1,0.6 c -0.1,0.5 0.1,1.1 0.5,1.4 0.6,0.4 1.5,0.3 1.9,-0.3 z" />
          <path
             style="fill:#0690ba"
             inkscape:connector-curvature="0"
             id="path67"
             d="m 2,59.1 c 3.5,-4.8 10.1,-5.8 14.9,-2.3 1,0.7 1.8,1.6 2.5,2.6 l 3.9,-1 c 0.2,-2.8 2.3,-5.7 4.9,-6.7 L 28,47.7 C 26.9,47.4 25.8,46.8 24.8,46.1 20.1,42.5 19,35.8 22.5,31 26,26.2 32.6,25.2 37.4,28.7 c 4.7,3.5 5.8,10.1 2.3,14.9 -0.9,1.3 -2.1,2.3 -3.5,3.1 l 0.4,7 c 1.2,1.5 1.9,3.4 1.8,5.3 l 3.9,2.8 c 3.6,-2.2 8.3,-2 11.8,0.5 4.8,3.5 5.8,10.2 2.3,14.9 C 53,82 46.3,83 41.5,79.6 38,77.1 36.4,72.6 37.4,68.5 l -3.9,-2.8 c -1.8,0.7 -3.8,0.7 -5.6,-0.1 l -6.8,1.8 C 20.8,69 20.2,70.5 19.2,71.7 15.8,76.4 9.2,77.5 4.4,74 -0.4,70.6 -1.4,63.9 2,59.1 Z M 16.9,70 c -2.5,3.4 -7.4,4.2 -10.8,1.7 3.5,2.4 8.3,1.7 10.8,-1.7 0,0 0,0 0,0 0,0 0,0 0,0 z M 37.4,41.9 c 2.5,-3.5 1.7,-8.3 -1.7,-10.8 3.4,2.5 4.2,7.3 1.7,10.8 0,0 0,0 0,0 0,0 0,0 0,0 z m -9.8,18.6 -9.6,2.2 -0.6,-1 c -0.5,-1 -1.3,-1.9 -2.2,-2.6 1.2,0.9 2.1,2.2 2.7,3.6 l 0.8,2.2 -0.3,0.1 0,0 c 0,0.3 0,0.6 0,0.9 L 18.5,65 27.8,62.5 28.2,60 c -0.6,-1.4 -1.9,-2.7 -0.9,-4.1 1,-1.4 2.5,-2.1 4.1,-1.9 l 1.6,0.2 0.9,0.9 c 0,0.1 0.1,0.1 0.2,0.1 L 33.7,55 33.2,44.9 34.1,44.5 c -0.3,0.1 -0.6,0.2 -0.9,0.3 l 0,0 0,0.3 -2.3,0 c -1.5,-0.1 -3,-0.6 -4.2,-1.5 0.9,0.7 2,1.1 3.1,1.3 l 1.1,0.2 0.7,9.6 -1.6,-0.6 c -2.1,0.4 -4,3 -3.7,5.1 l 1.3,1.3 z m 4,-3.4 L 31,57 c -1.2,-0.1 -2.2,1.2 -1.7,2.3 l 0.2,0.4 0.4,0.3 c 0.6,0.4 1.4,0.3 2,-0.1 l 0.3,-0.3 0.1,-0.4 c 0.3,-0.6 0,-1.4 -0.5,-1.9 l -0.2,-0.2 z m -0.1,6 c -0.6,0.1 -1.2,0.1 -1.8,-0.1 0.6,0.2 1.2,0.2 1.8,0.1 z m 10.6,2.2 -6.9,-5 0.1,-0.8 c -0.1,0.3 -0.1,0.5 -0.2,0.8 l -0.4,1.1 -0.9,0.8 c -0.2,0.2 -0.4,0.3 -0.6,0.4 l 0.7,-0.4 7,5.1 0.4,-0.4 0.3,-0.6 0.4,-0.4 0.1,-0.6 z M 54,75.5 c -2.5,3.4 -7.4,4.2 -10.8,1.7 3.5,2.5 8.3,1.8 10.8,-1.7 2.5,-3.4 1.7,-8.3 -1.7,-10.8 3.5,2.5 4.2,7.4 1.7,10.8 z M 8.1,63.6 c 1,-1.4 3,-1.7 4.4,-0.7 0.4,0.3 0.7,0.7 0.9,1.1 l 0.6,1.1 -0.4,1.2 C 13,68.4 10.5,69.2 8.8,68 7.4,66.9 7.1,65 8.1,63.6 Z M 28.6,35.5 c 1,-1.4 3,-1.7 4.4,-0.7 1.7,1.2 1.8,3.8 -0.1,5.1 l -1,0.7 -1.3,-0.2 c -0.5,-0.1 -0.9,-0.3 -1.3,-0.5 -1.4,-1.1 -1.7,-3 -0.7,-4.4 z m 16.7,33.6 1.1,-0.6 c 1,-0.6 2.2,-0.5 3.1,0.2 1.3,0.9 1.5,2.7 0.6,4 -0.9,1.3 -2.7,1.5 -4,0.6 -0.9,-0.7 -1.3,-1.8 -1.1,-2.9 l 0.3,-1.3 z" />
        </g>
        <path
           style="fill:#c3e8f2"
           inkscape:connector-curvature="0"
           id="path69"
           d="m 16.9,70 c 1.1,-1.5 1.6,-3.2 1.5,-4.9 l 9.9,-2.6 c 1.7,1.1 3.9,1 5.5,-0.3 l 7.2,5.2 c -1.7,3.3 -0.8,7.5 2.3,9.8 3.5,2.5 8.3,1.8 10.8,-1.7 2.5,-3.4 1.8,-8.3 -1.7,-10.8 -3.1,-2.3 -7.4,-1.9 -10.1,0.8 l -7.2,-5.2 c 0.7,-1.8 0.2,-4 -1.4,-5.3 L 33.1,44.8 c 1.7,-0.4 3.2,-1.4 4.2,-2.9 2.5,-3.5 1.7,-8.3 -1.7,-10.8 -3.4,-2.5 -8.3,-1.8 -10.8,1.7 -2.5,3.4 -1.8,8.3 1.7,10.8 1.3,0.9 2.8,1.4 4.3,1.5 l 0.5,9 c -1.6,-0.2 -3.2,0.5 -4.2,1.9 -1,1.4 -1.1,3.1 -0.5,4.5 l -8.7,2.3 C 17.4,61.4 16.5,60.1 15.2,59.2 11.7,56.7 6.9,57.5 4.4,60.9 1.9,64.3 2.6,69.2 6.1,71.7 9.6,74.2 14.4,73.4 16.9,70 Z m 33.5,-2.6 c 2,1.4 2.4,4.2 1,6.1 -1.4,2 -4.2,2.4 -6.1,1 -1.6,-1.2 -2.2,-3.3 -1.5,-5.1 l 1.3,1 c -0.2,1.1 0.2,2.2 1.1,2.9 1.3,0.9 3.1,0.6 4,-0.6 0.9,-1.3 0.7,-3.1 -0.6,-4 C 48.7,68 47.4,68 46.5,68.5 l -1.5,-1 c 1.6,-1.2 3.7,-1.3 5.4,-0.1 z M 28.3,41.1 c -2.1,-1.5 -2.5,-4.5 -1,-6.5 1.5,-2.1 4.5,-2.5 6.5,-1 2.1,1.5 2.6,4.5 1,6.5 -0.5,0.7 -1.2,1.2 -1.9,1.5 l -0.1,-1.7 c 0.3,-0.2 0.6,-0.4 0.8,-0.7 1,-1.4 0.7,-3.4 -0.7,-4.4 -1.4,-1 -3.4,-0.7 -4.4,0.7 -1,1.4 -0.7,3.4 0.7,4.4 0.4,0.3 0.9,0.5 1.3,0.5 L 30.6,42 C 29.9,41.9 29.1,41.6 28.3,41.1 Z M 6.9,62.7 c 1.5,-2.1 4.5,-2.6 6.5,-1 0.7,0.5 1.2,1.2 1.6,1.9 L 13.4,64 c -0.2,-0.4 -0.5,-0.8 -0.9,-1.1 -1.4,-1 -3.4,-0.7 -4.4,0.7 -1,1.4 -0.7,3.4 0.7,4.4 1.4,1 3.4,0.7 4.4,-0.7 0.2,-0.3 0.4,-0.6 0.5,-1 l 1.7,-0.4 c -0.1,0.8 -0.3,1.6 -0.9,2.3 C 13,70.3 10.1,70.7 8,69.2 5.8,67.7 5.4,64.7 6.9,62.7 Z" />
      </g>
    </g>
  </g>
  <g
     inkscape:groupmode="layer"
     id="layer2"
     inkscape:label="BADGE"
     style="display:none"
     sodipodi:insensitive="true">
    <g
       style="display:inline"
       transform="translate(-340.00001,-581)"
       id="g4394"
       clip-path="none">
      <g
         id="g855">
        <g
           inkscape:groupmode="maskhelper"
           id="g870"
           clip-path="url(#clipPath873)"
           style="opacity:0.6;filter:url(#filter891)">
          <circle
             transform="matrix(1.4999992,0,0,1.4999992,-29.999795,-237.54282)"
             id="path844"
             style="color:#000000;display:inline;overflow:visible;visibility:visible;fill:#000000;fill-opacity:1;fill-rule:nonzero;stroke:none;stroke-width:4;marker:none;enable-background:accumulate"
             cx="252"
             cy="552.36218"
             r="12" />
        </g>
        <g
           id="g862">
          <circle
             style="color:#000000;display:inline;overflow:visible;visibility:visible;fill:#f5f5f5;fill-opacity:1;fill-rule:nonzero;stroke:none;stroke-width:4;marker:none;enable-background:accumulate"
             id="path4398"
             transform="matrix(1.4999992,0,0,1.4999992,-29.999795,-238.54282)"
             cx="252"
             cy="552.36218"
             r="12" />
          <circle
             transform="matrix(1.25,0,0,1.25,33,-100.45273)"
             id="path4400"
             style="color:#000000;display:inline;overflow:visible;visibility:visible;fill:#dd4814;fill-opacity:1;fill-rule:nonzero;stroke:none;stroke-width:4;marker:none;enable-background:accumulate"
             cx="252"
             cy="552.36218"
             r="12" />
          <path
             sodipodi:type="star"
             style="color:#000000;display:inline;overflow:visible;visibility:visible;fill:#f5f5f5;fill-opacity:1;fill-rule:nonzero;stroke:none;stroke-width:3;marker:none;enable-background:accumulate"
             id="path4459"
             sodipodi:sides="5"
             sodipodi:cx="666.19574"
             sodipodi:cy="589.50385"
             sodipodi:r1="7.2431178"
             sodipodi:r2="4.3458705"
             sodipodi:arg1="1.0471976"
             sodipodi:arg2="1.6755161"
             inkscape:flatsided="false"
             inkscape:rounded="0.1"
             inkscape:randomized="0"
             d="m 669.8173,595.77657 c -0.39132,0.22593 -3.62645,-1.90343 -4.07583,-1.95066 -0.44938,-0.0472 -4.05653,1.36297 -4.39232,1.06062 -0.3358,-0.30235 0.68963,-4.03715 0.59569,-4.47913 -0.0939,-0.44198 -2.5498,-3.43681 -2.36602,-3.8496 0.18379,-0.41279 4.05267,-0.59166 4.44398,-0.81759 0.39132,-0.22593 2.48067,-3.48704 2.93005,-3.4398 0.44938,0.0472 1.81505,3.67147 2.15084,3.97382 0.3358,0.30236 4.08294,1.2817 4.17689,1.72369 0.0939,0.44198 -2.9309,2.86076 -3.11469,3.27355 -0.18379,0.41279 0.0427,4.27917 -0.34859,4.5051 z"
             transform="matrix(1.511423,-0.16366377,0.16366377,1.511423,-755.37346,-191.93651)" />
        </g>
      </g>
    </g>
  </g>
</svg>
